<svg width="40" height="31" viewBox="0 0 40 31" fill="none" xmlns="http://www.w3.org/2000/svg">
<path d="M39.6698 0.538309C39.278 0.0541566 38.6283 -0.125389 38.0506 0.0900656L1.35873 13.5402C0.625695 13.8104 0.11117 14.4657 0.0156498 15.2505C-0.0789546 16.0315 0.2604 16.7893 0.896996 17.2255L6.14174 20.8572C6.64985 21.2092 7.30323 21.247 7.84736 20.9557L19.2243 14.87L10.3574 21.586C9.94117 21.9014 9.69245 22.4044 9.69245 22.9313V29.1522C9.69245 29.794 10.0394 30.3818 10.5979 30.687C11.1573 30.9923 11.833 30.9619 12.3643 30.6065L16.3489 27.9254L20.2674 30.6356C20.6107 30.8743 21.0196 31 21.4322 31C21.5717 31 21.7118 30.9855 21.8497 30.9564C22.3999 30.84 22.8867 30.4951 23.1855 30.0103L39.7861 2.24337C40.1093 1.70876 40.0629 1.02463 39.6698 0.538309ZM21.3447 28.5018L17.2867 25.6951C17.0044 25.4994 16.6791 25.4016 16.3541 25.4016C16.0361 25.4016 15.7178 25.4954 15.4392 25.683L12.0374 27.9719V23.2823L27.6944 11.4234C28.3936 10.8937 28.5697 9.92976 28.1037 9.18124C27.6374 8.43272 26.7038 8.17981 25.932 8.59277L7.12104 18.655L2.68502 15.5833L36.4731 3.19774L21.3447 28.5018Z" fill="#C4C4C4"/>
</svg>
