<svg width="23" height="39" viewBox="0 0 23 39" fill="none" xmlns="http://www.w3.org/2000/svg">
<path d="M14.2067 39H7.71737C6.63344 39 5.7517 38.1514 5.7517 37.1082V23.0212H1.96567C0.881738 23.0212 0 22.1723 0 21.1294V15.093C0 14.0498 0.881738 13.2012 1.96567 13.2012H5.7517V10.1785C5.7517 7.18128 6.72959 4.63131 8.57932 2.80467C10.4374 0.969704 13.0341 0 16.0886 0L21.0377 0.00773617C22.1198 0.00952148 23 0.858124 23 1.89954V7.50412C23 8.54732 22.1186 9.39592 21.035 9.39592L17.7028 9.39711C16.6865 9.39711 16.4278 9.59319 16.3724 9.6533C16.2812 9.75298 16.1727 10.0348 16.1727 10.8128V13.2009H20.7845C21.1317 13.2009 21.4681 13.2834 21.7572 13.4387C22.3807 13.774 22.7684 14.4081 22.7684 15.0933L22.766 21.1297C22.766 22.1723 21.8842 23.0209 20.8003 23.0209H16.1727V37.1082C16.1727 38.1514 15.2907 39 14.2067 39ZM8.12732 36.7137H13.7968V21.9976C13.7968 21.301 14.3857 20.7345 15.1092 20.7345H20.3903L20.3925 15.4876H15.1089C14.3854 15.4876 13.7968 14.9211 13.7968 14.2245V10.8128C13.7968 9.9196 13.8911 8.90378 14.5916 8.14027C15.4381 7.21729 16.7722 7.11076 17.7022 7.11076L20.6244 7.10957V2.29349L16.0868 2.28635C11.1779 2.28635 8.12732 5.31061 8.12732 10.1785V14.2245C8.12732 14.9208 7.53867 15.4876 6.81523 15.4876H2.37562V20.7345H6.81523C7.53867 20.7345 8.12732 21.301 8.12732 21.9976V36.7137ZM21.0331 2.29408H21.0334H21.0331Z" fill="#C4C4C4"/>
</svg>
