<svg width="41" height="40" viewBox="0 0 41 40" fill="none" xmlns="http://www.w3.org/2000/svg">
<path d="M34.836 5.69165C31.2152 2.07089 26.4023 0.0771484 21.2815 0.0771484C21.2812 0.0771484 21.28 0.0771484 21.2797 0.0771484C18.747 0.07745 16.2789 0.567818 13.9444 1.53498C11.6095 2.50215 9.51779 3.90057 7.72671 5.69165C4.10626 9.31211 2.11251 14.1259 2.11251 19.2461C2.11251 22.2996 2.84927 25.3341 4.24528 28.0378L1.02321 37.2426C0.796121 37.8919 0.956863 38.5976 1.44361 39.084C1.78409 39.4248 2.23224 39.6057 2.69305 39.6057C2.89059 39.6057 3.09023 39.5726 3.28505 39.5044L12.4899 36.2826C15.1935 37.6787 18.228 38.4154 21.2815 38.4154C26.4017 38.4154 31.2152 36.4214 34.836 32.8009C38.4564 29.1805 40.4505 24.3666 40.4505 19.2464C40.4505 14.1259 38.4567 9.31211 34.836 5.69165ZM33.1966 31.1615C30.014 34.3444 25.7823 36.0969 21.2815 36.0969C18.5281 36.0969 15.7928 35.4159 13.3711 34.127C12.932 33.8935 12.413 33.8534 11.947 34.0166L3.58422 36.9434L6.51135 28.5806C6.6745 28.1141 6.63409 27.5951 6.40067 27.1563C5.11202 24.7352 4.43075 21.9999 4.43075 19.2461C4.43075 14.7454 6.18353 10.5136 9.3661 7.33103C12.5484 4.14877 16.7795 2.39599 21.28 2.39539H21.2815C25.7826 2.39539 30.014 4.14817 33.1966 7.33103C36.3795 10.5136 38.1322 14.7451 38.1322 19.2461C38.1322 23.7472 36.3795 27.979 33.1966 31.1615Z" fill="#C4C4C4"/>
<path d="M28.4057 20.9585C27.5238 20.0766 26.0889 20.0766 25.2071 20.9585L24.2427 21.9229C21.8478 20.618 19.9099 18.68 18.6046 16.2852L19.5691 15.3207C20.4512 14.4389 20.4512 13.004 19.5691 12.1222L16.9701 9.52318C16.0883 8.64136 14.6533 8.64136 13.7715 9.52318L11.6924 11.6023C10.5015 12.7932 10.4421 14.8406 11.5251 17.3676C12.4654 19.5615 14.1862 21.973 16.3705 24.1573C18.5549 26.3417 20.9663 28.0625 23.1603 29.0028C24.3609 29.5173 25.4529 29.7739 26.3965 29.7739C27.4391 29.7739 28.3004 29.4606 28.9256 28.8354L31.0047 26.756V26.7563C31.432 26.329 31.6672 25.7611 31.6672 25.1571C31.6672 24.5527 31.432 23.9848 31.0047 23.5578L28.4057 20.9585ZM27.2862 27.196C26.9463 27.5359 25.901 27.655 24.0738 26.8721C22.1443 26.0452 19.9907 24.4987 18.0099 22.5179C16.0291 20.5372 14.4829 18.3839 13.656 16.4544C12.8728 14.6271 12.9919 13.5815 13.3318 13.2417L15.3711 11.2024L17.8899 13.7215L16.6827 14.929C16.1368 15.4748 16.005 16.3027 16.3551 16.9891C17.9424 20.1014 20.4265 22.5855 23.5388 24.1727C24.2255 24.5228 25.0533 24.3913 25.5992 23.8452L26.8064 22.638L29.3255 25.1571L27.2862 27.196Z" fill="#C4C4C4"/>
</svg>
