<svg width="0" height="0" class="hidden">
  <symbol xmlns="http://www.w3.org/2000/svg" viewBox="0 0 40 41" id="social-01">
    <path d="M28.8285 0.685547H10.7C4.79993 0.685547 0 5.48547 0 11.3856V29.5144C0 35.4141 4.79993 40.2141 10.7 40.2141H28.8288C34.7286 40.2141 39.5285 35.4141 39.5285 29.5144V11.3856C39.5285 5.48547 34.7286 0.685547 28.8285 0.685547V0.685547ZM37.2112 29.5144C37.2112 34.1364 33.4508 37.8967 28.8285 37.8967H10.7C6.07772 37.8967 2.31733 34.1364 2.31733 29.5144V11.3856C2.31733 6.76326 6.07772 3.00288 10.7 3.00288H28.8288C33.4508 3.00288 37.2112 6.76326 37.2112 11.3856V29.5144Z"></path>
    <path d="M19.7623 9.6416C13.8025 9.6416 8.95398 14.4901 8.95398 20.4499C8.95398 26.4097 13.8025 31.2582 19.7623 31.2582C25.7221 31.2582 30.5705 26.4097 30.5705 20.4499C30.5705 14.4901 25.7221 9.6416 19.7623 9.6416ZM19.7623 28.9408C15.0806 28.9408 11.2713 25.1319 11.2713 20.4499C11.2713 15.7682 15.0806 11.9589 19.7623 11.9589C24.4443 11.9589 28.2532 15.7682 28.2532 20.4499C28.2532 25.1319 24.4443 28.9408 19.7623 28.9408Z"></path>
    <path d="M30.8304 5.80298C29.0692 5.80298 27.6367 7.23578 27.6367 8.9967C27.6367 10.7579 29.0692 12.1907 30.8304 12.1907C32.5917 12.1907 34.0245 10.7579 34.0245 8.9967C34.0245 7.23548 32.5917 5.80298 30.8304 5.80298ZM30.8304 9.87309C30.3473 9.87309 29.954 9.47983 29.954 8.9967C29.954 8.51327 30.3473 8.12031 30.8304 8.12031C31.3139 8.12031 31.7071 8.51327 31.7071 8.9967C31.7071 9.47983 31.3139 9.87309 30.8304 9.87309Z"></path>
  </symbol>
  <symbol xmlns="http://www.w3.org/2000/svg" viewBox="0 0 40 31" id="social-02">
    <path d="M39.6698 0.538309C39.278 0.0541566 38.6283 -0.125389 38.0506 0.0900656L1.35873 13.5402C0.625695 13.8104 0.11117 14.4657 0.0156498 15.2505C-0.0789546 16.0315 0.2604 16.7893 0.896996 17.2255L6.14174 20.8572C6.64985 21.2092 7.30323 21.247 7.84736 20.9557L19.2243 14.87L10.3574 21.586C9.94117 21.9014 9.69245 22.4044 9.69245 22.9313V29.1522C9.69245 29.794 10.0394 30.3818 10.5979 30.687C11.1573 30.9923 11.833 30.9619 12.3643 30.6065L16.3489 27.9254L20.2674 30.6356C20.6107 30.8743 21.0196 31 21.4322 31C21.5717 31 21.7118 30.9855 21.8497 30.9564C22.3999 30.84 22.8867 30.4951 23.1855 30.0103L39.7861 2.24337C40.1093 1.70876 40.0629 1.02463 39.6698 0.538309ZM21.3447 28.5018L17.2867 25.6951C17.0044 25.4994 16.6791 25.4016 16.3541 25.4016C16.0361 25.4016 15.7178 25.4954 15.4392 25.683L12.0374 27.9719V23.2823L27.6944 11.4234C28.3936 10.8937 28.5697 9.92976 28.1037 9.18124C27.6374 8.43272 26.7038 8.17981 25.932 8.59277L7.12104 18.655L2.68502 15.5833L36.4731 3.19774L21.3447 28.5018Z"></path>
  </symbol>
  <symbol xmlns="http://www.w3.org/2000/svg" viewBox="0 0 41 40" id="social-03">
    <path d="M34.836 5.69165C31.2152 2.07089 26.4023 0.0771484 21.2815 0.0771484C21.2812 0.0771484 21.28 0.0771484 21.2797 0.0771484C18.747 0.07745 16.2789 0.567818 13.9444 1.53498C11.6095 2.50215 9.51779 3.90057 7.72671 5.69165C4.10626 9.31211 2.11251 14.1259 2.11251 19.2461C2.11251 22.2996 2.84927 25.3341 4.24528 28.0378L1.02321 37.2426C0.796121 37.8919 0.956863 38.5976 1.44361 39.084C1.78409 39.4248 2.23224 39.6057 2.69305 39.6057C2.89059 39.6057 3.09023 39.5726 3.28505 39.5044L12.4899 36.2826C15.1935 37.6787 18.228 38.4154 21.2815 38.4154C26.4017 38.4154 31.2152 36.4214 34.836 32.8009C38.4564 29.1805 40.4505 24.3666 40.4505 19.2464C40.4505 14.1259 38.4567 9.31211 34.836 5.69165ZM33.1966 31.1615C30.014 34.3444 25.7823 36.0969 21.2815 36.0969C18.5281 36.0969 15.7928 35.4159 13.3711 34.127C12.932 33.8935 12.413 33.8534 11.947 34.0166L3.58422 36.9434L6.51135 28.5806C6.6745 28.1141 6.63409 27.5951 6.40067 27.1563C5.11202 24.7352 4.43075 21.9999 4.43075 19.2461C4.43075 14.7454 6.18353 10.5136 9.3661 7.33103C12.5484 4.14877 16.7795 2.39599 21.28 2.39539H21.2815C25.7826 2.39539 30.014 4.14817 33.1966 7.33103C36.3795 10.5136 38.1322 14.7451 38.1322 19.2461C38.1322 23.7472 36.3795 27.979 33.1966 31.1615Z"></path>
    <path d="M28.4057 20.9585C27.5238 20.0766 26.0889 20.0766 25.2071 20.9585L24.2427 21.9229C21.8478 20.618 19.9099 18.68 18.6046 16.2852L19.5691 15.3207C20.4512 14.4389 20.4512 13.004 19.5691 12.1222L16.9701 9.52318C16.0883 8.64136 14.6533 8.64136 13.7715 9.52318L11.6924 11.6023C10.5015 12.7932 10.4421 14.8406 11.5251 17.3676C12.4654 19.5615 14.1862 21.973 16.3705 24.1573C18.5549 26.3417 20.9663 28.0625 23.1603 29.0028C24.3609 29.5173 25.4529 29.7739 26.3965 29.7739C27.4391 29.7739 28.3004 29.4606 28.9256 28.8354L31.0047 26.756V26.7563C31.432 26.329 31.6672 25.7611 31.6672 25.1571C31.6672 24.5527 31.432 23.9848 31.0047 23.5578L28.4057 20.9585ZM27.2862 27.196C26.9463 27.5359 25.901 27.655 24.0738 26.8721C22.1443 26.0452 19.9907 24.4987 18.0099 22.5179C16.0291 20.5372 14.4829 18.3839 13.656 16.4544C12.8728 14.6271 12.9919 13.5815 13.3318 13.2417L15.3711 11.2024L17.8899 13.7215L16.6827 14.929C16.1368 15.4748 16.005 16.3027 16.3551 16.9891C17.9424 20.1014 20.4265 22.5855 23.5388 24.1727C24.2255 24.5228 25.0533 24.3913 25.5992 23.8452L26.8064 22.638L29.3255 25.1571L27.2862 27.196Z"></path>
  </symbol>
  <symbol xmlns="http://www.w3.org/2000/svg" viewBox="0 0 23 39" id="social-04">
    <path d="M14.2067 39H7.71737C6.63344 39 5.7517 38.1514 5.7517 37.1082V23.0212H1.96567C0.881738 23.0212 0 22.1723 0 21.1294V15.093C0 14.0498 0.881738 13.2012 1.96567 13.2012H5.7517V10.1785C5.7517 7.18128 6.72959 4.63131 8.57932 2.80467C10.4374 0.969704 13.0341 0 16.0886 0L21.0377 0.00773617C22.1198 0.00952148 23 0.858124 23 1.89954V7.50412C23 8.54732 22.1186 9.39592 21.035 9.39592L17.7028 9.39711C16.6865 9.39711 16.4278 9.59319 16.3724 9.6533C16.2812 9.75298 16.1727 10.0348 16.1727 10.8128V13.2009H20.7845C21.1317 13.2009 21.4681 13.2834 21.7572 13.4387C22.3807 13.774 22.7684 14.4081 22.7684 15.0933L22.766 21.1297C22.766 22.1723 21.8842 23.0209 20.8003 23.0209H16.1727V37.1082C16.1727 38.1514 15.2907 39 14.2067 39ZM8.12732 36.7137H13.7968V21.9976C13.7968 21.301 14.3857 20.7345 15.1092 20.7345H20.3903L20.3925 15.4876H15.1089C14.3854 15.4876 13.7968 14.9211 13.7968 14.2245V10.8128C13.7968 9.9196 13.8911 8.90378 14.5916 8.14027C15.4381 7.21729 16.7722 7.11076 17.7022 7.11076L20.6244 7.10957V2.29349L16.0868 2.28635C11.1779 2.28635 8.12732 5.31061 8.12732 10.1785V14.2245C8.12732 14.9208 7.53867 15.4876 6.81523 15.4876H2.37562V20.7345H6.81523C7.53867 20.7345 8.12732 21.301 8.12732 21.9976V36.7137ZM21.0331 2.29408H21.0334H21.0331Z"></path>
  </symbol>
</svg>